<?xml version="1.0" encoding="utf-8"?>
<!-- Generator: Adobe Illustrator 26.0.1, SVG Export Plug-In . SVG Version: 6.00 Build 0)  -->
<svg version="1.1" id="Layer_1" xmlns="http://www.w3.org/2000/svg" xmlns:xlink="http://www.w3.org/1999/xlink" x="0px" y="0px"
	 viewBox="0 0 2029 760.4" style="enable-background:new 0 0 2029 760.4;" xml:space="preserve">
<style type="text/css">
	.st0{fill:#2E296D;}
	.st1{fill:#423B9D;}
	.st2{fill:#433F99;}
	.st3{display:none;}
	.st4{display:inline;fill:none;stroke:#CB4E95;stroke-width:3;stroke-miterlimit:10;}
</style>
<g id="Layer_2_00000000188509250164811240000016495905566232146831_">
	<rect x="0" class="st0" width="2029" height="760.4"/>
</g>
<g id="Layer_3">
	<path class="st1" d="M0,0h744.8c0,0,75,17.4,71,88.9S685.5,162,685.5,162l-71-15.2c0,0-40.3-14.1-62.3,34.3
		c-22,48.4-33.1,132.2-184.1,145.7s-239.3-93.9-239.3-93.9S-2.1,95.8,0,84.4V0z"/>
	<path class="st1" d="M1342,654.8c0,0-211.7-71.4,58.3-175.2c0,0,162-24.8,107.6-79.6c-54.5-54.8-124.4-113.1-46.2-181.4
		c78.2-68.3,229.7-102.4,567.4-54.6v316.9c0,0-41.3,14.1-68.7-25.3c0,0-124.4-9.3-209.6,70C1665.5,604.9,1554,747.6,1342,654.8z"/>
	<path class="st2" d="M0,512.2c0,0,44.2,42.9,78.9,40.1c10.5-0.8,168.2,33.8,207.7,101.2c15.9,27.1,87.6,92.3,154,94.5
		c40.6,1.3,274.9,12.3,274.9,12.3H0V512.2z"/>
</g>
<g id="Layer_1_00000166649366713913284110000008825098146591975607_" class="st3">
	
		<image style="display:inline;overflow:visible;enable-background:new    ;" width="1445" height="1601" xlink:href="A2405739.jpeg"  transform="matrix(0.9997 0 0 0.9997 584.2487 -839.8495)">
	</image>
	<path class="st4" d="M674.8,0"/>
	<path class="st4" d="M648.4-26.4"/>
</g>
</svg>
