<?xml version="1.0" standalone="no"?>
<!DOCTYPE svg PUBLIC "-//W3C//DTD SVG 20010904//EN"
 "http://www.w3.org/TR/2001/REC-SVG-20010904/DTD/svg10.dtd">
<svg version="1.0" xmlns="http://www.w3.org/2000/svg"
 width="361.000000pt" height="101.000000pt" viewBox="0 0 361.000000 101.000000"
 preserveAspectRatio="xMidYMid meet">

<g transform="translate(0.000000,101.000000) scale(0.100000,-0.100000)"
fill="#000000" stroke="none">
<path d="M0 810 c0 -171 2 -200 15 -200 12 0 15 -18 15 -106 0 -94 -2 -105
-15 -94 -13 11 -15 -2 -15 -104 0 -96 3 -116 15 -116 12 0 15 -17 15 -95 l0
-95 97 0 97 0 -47 48 -47 48 50 49 50 49 0 -97 0 -97 97 0 98 0 -95 95 c-52
52 -91 97 -87 101 3 3 92 3 198 -1 l191 -7 -93 -94 -94 -94 1583 0 1582 0 0
505 0 505 -1805 0 -1805 0 0 -200z m2297 64 c7 -19 -28 -181 -44 -203 -9 -12
-14 -13 -24 -4 -9 9 -8 32 6 105 17 91 28 118 47 118 5 0 11 -7 15 -16z m247
-10 c43 -43 -5 -120 -60 -96 -13 7 -29 23 -36 36 -24 55 53 103 96 60z m-417
-31 c3 -9 -1 -55 -10 -103 -10 -48 -17 -92 -17 -98 0 -25 22 -11 36 23 16 38
44 47 44 15 0 -34 -29 -80 -56 -90 -18 -7 -33 -6 -53 4 -23 13 -31 13 -52 1
-65 -37 -68 -39 -94 -27 -33 15 -39 32 -30 88 12 80 78 121 120 74 13 -14 16
-29 12 -54 -4 -27 -2 -34 8 -30 13 5 45 120 45 159 0 22 18 55 31 55 5 0 12
-7 16 -17z m-1897 -128 l0 -95 -97 0 -98 0 95 95 c52 52 96 95 97 95 2 0 3
-43 3 -95z m1227 29 c3 -9 -2 -59 -12 -111 -9 -52 -15 -96 -12 -100 13 -12 26
10 32 59 8 57 44 104 72 94 8 -4 22 -1 29 5 25 21 43 -6 33 -49 -5 -20 -9 -50
-9 -66 0 -24 2 -27 15 -16 8 7 15 20 15 30 0 10 6 23 13 29 8 6 19 28 25 50 7
21 19 42 28 45 21 8 44 -11 37 -30 -6 -16 26 -84 40 -84 5 0 11 9 14 20 7 26
43 27 43 1 0 -24 -44 -78 -70 -86 -17 -5 -18 -9 -7 -32 10 -22 8 -28 -12 -44
-30 -24 -43 -24 -66 1 -17 19 -17 21 -1 39 17 18 16 19 -3 26 -11 3 -29 1 -40
-5 -11 -6 -33 -10 -48 -10 -15 0 -68 -7 -118 -15 -49 -9 -106 -18 -125 -21
-68 -9 -125 -15 -157 -17 -17 -1 -35 -5 -39 -9 -11 -12 -49 -9 -62 4 -7 7 -12
20 -12 30 0 32 -28 19 -34 -16 -7 -37 -21 -46 -71 -46 -42 0 -57 23 -48 74 3
21 2 36 -4 36 -6 0 -13 -18 -17 -39 -9 -60 -44 -95 -92 -94 -21 1 -46 -3 -56
-8 -21 -11 -46 -2 -58 21 -13 24 7 125 29 143 20 18 98 30 106 17 3 -5 1 -35
-4 -67 -12 -61 -9 -72 13 -54 16 13 31 81 27 124 -3 32 25 49 43 26 6 -8 24
-23 40 -33 26 -16 28 -22 23 -62 -2 -24 -1 -44 4 -44 10 0 25 53 40 140 13 76
24 100 44 100 11 0 15 -11 15 -39 0 -33 4 -40 25 -45 27 -7 44 -48 28 -69 -5
-6 -7 -25 -3 -42 6 -29 6 -29 18 -9 6 12 14 40 18 63 4 22 12 48 18 56 13 18
92 39 108 29 10 -6 4 -86 -8 -119 -4 -9 0 -15 10 -15 14 0 20 15 41 102 9 36
29 51 60 46 22 -5 25 -1 31 31 12 65 37 92 51 55z m2083 -64 c11 -11 20 -29
20 -40 0 -25 -34 -60 -58 -60 -32 0 -62 29 -62 60 0 53 62 78 100 40z m-1286
-45 c2 -7 -2 -19 -10 -26 -22 -18 -53 13 -35 35 14 16 37 12 45 -9z m266 -72
c0 -40 -26 -143 -39 -156 -25 -25 -22 71 5 166 9 28 34 20 34 -10z m-394 -67
c3 -7 -1 -49 -10 -92 -8 -43 -13 -80 -11 -82 10 -11 25 13 30 52 4 23 10 48
14 55 9 14 80 33 93 25 4 -3 5 -30 1 -61 -4 -41 -3 -54 5 -49 7 4 12 12 12 18
0 6 12 35 26 65 18 39 30 53 42 51 10 -2 16 -12 15 -23 -1 -11 6 -32 15 -47
l17 -28 17 22 c13 18 20 20 29 11 14 -14 -16 -70 -44 -79 -14 -4 -17 -12 -12
-35 6 -24 3 -31 -20 -41 -21 -10 -29 -9 -42 5 -14 13 -14 19 -3 32 7 8 11 18
8 21 -3 2 -45 -2 -94 -11 -49 -9 -100 -17 -114 -18 -39 -4 -69 -25 -76 -55
-15 -63 -83 -87 -106 -37 -10 22 -8 29 13 51 l24 27 -23 -12 c-12 -7 -30 -11
-40 -10 -9 1 -25 -1 -34 -6 -10 -4 -25 -5 -33 -2 -8 4 -27 0 -42 -8 -15 -8
-40 -15 -55 -15 -24 0 -28 -4 -28 -29 0 -32 -13 -46 -34 -38 -11 5 -11 23 4
106 10 55 21 104 24 110 7 11 66 8 86 -4 8 -5 10 -22 6 -54 -7 -55 10 -37 19
22 7 36 47 78 62 63 3 -3 12 -1 18 4 22 18 34 -11 25 -60 -5 -25 -6 -47 -4
-49 10 -10 24 18 33 62 10 55 14 62 36 53 10 -3 14 -14 11 -28 -3 -13 -7 -36
-11 -51 -4 -21 -2 -28 7 -25 7 3 17 27 23 54 12 57 22 77 37 68 6 -4 7 -27 3
-63 -10 -85 12 -52 30 45 8 43 17 85 20 92 6 16 24 15 31 -2z m-548 -103 c5
-17 -26 -29 -40 -15 -6 6 -7 15 -3 22 9 14 37 9 43 -7z m-1448 -88 l95 -95
-98 0 -97 0 0 95 c0 52 1 95 3 95 1 0 45 -43 97 -95z m2357 69 c7 -20 -17 -37
-34 -23 -15 13 -6 39 13 39 8 0 17 -7 21 -16z m-1118 -11 c0 -10 -6 -51 -13
-91 -15 -85 1 -97 21 -16 15 58 33 74 82 71 39 -2 39 -3 28 -71 -9 -55 11 -33
27 30 8 33 18 50 30 52 17 4 18 -1 12 -52 -8 -62 5 -76 23 -25 12 36 37 34 33
-2 -3 -33 -47 -70 -75 -64 -27 6 -61 -22 -70 -57 -10 -40 -35 -60 -71 -56 -25
2 -32 8 -34 29 -2 14 4 31 12 39 19 15 22 37 4 23 -20 -16 -118 -26 -133 -13
-9 7 -19 5 -38 -10 -30 -24 -70 -26 -87 -4 -11 12 -11 30 -1 95 15 97 19 109
37 109 9 0 14 -12 14 -35 0 -28 4 -35 20 -35 25 0 41 -30 33 -61 -3 -14 -2
-20 3 -16 5 5 13 27 19 50 6 26 16 42 25 42 12 0 14 -12 12 -60 -5 -85 14 -60
34 45 8 47 18 88 20 92 10 15 34 8 33 -9z m-72 -9 c8 -20 -8 -36 -26 -25 -15
10 -8 41 9 41 6 0 13 -7 17 -16z"/>
<path d="M1950 674 c-16 -40 -13 -84 5 -78 11 5 12 11 5 24 -7 14 -6 23 5 34
17 17 20 46 5 46 -6 0 -15 -12 -20 -26z"/>
<path d="M1520 618 c0 -7 -3 -30 -6 -50 -7 -39 10 -55 20 -20 17 60 17 82 2
82 -9 0 -16 -6 -16 -12z"/>
<path d="M1362 587 c-15 -34 -16 -67 -2 -67 13 0 23 41 18 71 -4 24 -5 24 -16
-4z"/>
<path d="M1196 558 c-3 -13 -6 -36 -6 -53 1 -29 1 -29 15 -11 16 21 21 86 6
86 -5 0 -11 -10 -15 -22z"/>
<path d="M1682 565 c-10 -12 -10 -15 2 -15 7 0 16 7 20 15 7 19 -5 19 -22 0z"/>
<path d="M1050 555 c-10 -12 -10 -15 4 -15 9 0 16 7 16 15 0 8 -2 15 -4 15 -2
0 -9 -7 -16 -15z"/>
<path d="M736 498 c-9 -34 -7 -78 3 -78 11 0 21 35 21 73 0 33 -15 36 -24 5z"/>
<path d="M2178 363 c-3 -21 -3 -40 -1 -43 8 -9 23 25 23 53 0 40 -17 33 -22
-10z"/>
<path d="M2316 355 c-3 -8 -1 -15 4 -15 6 0 10 7 10 15 0 8 -2 15 -4 15 -2 0
-6 -7 -10 -15z"/>
<path d="M1845 314 c-6 -34 -1 -54 10 -42 3 3 9 22 12 42 7 48 -13 48 -22 0z"/>
<path d="M1726 318 c-13 -40 -15 -68 -6 -73 11 -7 15 3 24 53 5 30 -10 47 -18
20z"/>
<path d="M1960 209 c0 -5 5 -7 10 -4 6 3 10 8 10 11 0 2 -4 4 -10 4 -5 0 -10
-5 -10 -11z"/>
<path d="M1426 268 c-13 -40 -15 -68 -7 -68 13 0 17 8 26 48 4 21 3 32 -5 32
-6 0 -12 -6 -14 -12z"/>
<path d="M1161 217 c-14 -36 -14 -67 0 -67 7 0 9 9 6 22 -4 12 -1 28 4 35 6 7
9 18 6 25 -3 8 -9 1 -16 -15z"/>
<path d="M1407 123 c-4 -3 -7 -11 -7 -17 0 -6 5 -5 12 2 6 6 9 14 7 17 -3 3
-9 2 -12 -2z"/>
</g>
</svg>
